<svg xmlns="http://www.w3.org/2000/svg" viewBox="0 0 174.9 193.08"><title>tikitwo</title><g id="Layer_2" data-name="Layer 2"><g id="Layer_1-2" data-name="Layer 1"><g id="Cubjav"><path d="M67,15.43a19,19,0,0,1,3.31.27,10.71,10.71,0,0,0,2.89.05c1.76,0,3.49.45,5.27.31.69,0,1.15.53,1.61,1s.49.46,1.12.07a4.48,4.48,0,0,1,2.43-.79c.83,0,1.65,0,2.47,0A62.72,62.72,0,0,0,92.77,16a3,3,0,0,1,2.75,1.09l.1.11c.49.42,1,.4,1.27-.2a2.1,2.1,0,0,1,2.24-1.28c.72,0,1.46-.05,2.18,0a57.27,57.27,0,0,0,6.42-.33c.72,0,1.43-.42,2.19-.21.39.68-.07,1.32-.25,1.87-.47,1.42-.44,3-1.11,4.34a1.54,1.54,0,0,0,0,.57,4.06,4.06,0,0,1-.26,1.64c-.22.48,0,1.06-.27,1.63a7.21,7.21,0,0,0-.28,1.91,7.06,7.06,0,0,0-.36,2.05c.08.7-.49,1.33-.28,2.06-.59,1.83-.51,3.8-1.13,5.64a11.13,11.13,0,0,0-.27,2.2c-.18,1.38-.47,2.74-.67,4.11s-.34,2.76-.61,4.11a15.39,15.39,0,0,1-.79,3.74,1.78,1.78,0,0,0,0,.57,3.5,3.5,0,0,1-.26,1.64c-.24.46.21,1.12-.3,1.62-.12.13,0,.47,0,.71a9.1,9.1,0,0,1-.52,2.69c-.21.62.2,1.35-.35,1.9.2,1-.49,1.93-.28,2.93.11.55-.31,1-.32,1.48a3.89,3.89,0,0,1-.21,1.36,6.9,6.9,0,0,0-.31,2c0,1.69-.74,3.29-.63,5-.41.59-.07,1.37-.34,1.89s-.11,1.21-.25,1.79a5.19,5.19,0,0,0-.3,1.49,2.33,2.33,0,0,1-.16,1.38c-.22.42,0,1.06-.13,1.54-.47,1.36-.31,2.83-.85,4.16a.22.22,0,0,0,0,.14c.18,1.29-.52,2.52-.28,3.8.1.54-.37.84-.33,1.34s.23.87-.19,1.23a.3.3,0,0,0-.07.25c.17,1.15-.46,2.22-.31,3.37.08.61-.38,1.12-.3,1.77A2.25,2.25,0,0,1,96.63,99s0,.19,0,.28a12.09,12.09,0,0,1-.36,3.65,20.9,20.9,0,0,0-.21,3c0,.62-.44,1.11-.32,1.77a3.61,3.61,0,0,1,0,1.73,13.12,13.12,0,0,0-.26,3.53,4.49,4.49,0,0,1-.23,1.79,2,2,0,0,0,.08,1.52c.37.88.19,1.26-.67,1.71a8,8,0,0,1-2.12.84,6,6,0,0,0-1.15.39c-.62.25-1,.3-1.47-.21A.54.54,0,0,0,89,119c-.6.85-1.27.8-2,.23a.47.47,0,0,0-.38-.13c-1.48.13-2.91-.5-4.39-.31a3.24,3.24,0,0,1-1.78-.26c-.54-.25-1.07-.48-1-1.17,0-.46-.4-.73-.33-1.19s0-.87,0-1.31c.06-.62-.44-1.12-.32-1.77a3.37,3.37,0,0,0,0-1.73,8.29,8.29,0,0,1-.25-2.66,10.73,10.73,0,0,1-.32-1.91,2.49,2.49,0,0,0-.26-1.92c0-.06,0-.19,0-.29.19-1.62-.45-3.2-.29-4.82.06-.63-.39-1.12-.33-1.78s.29-1.24-.25-1.77c0,0,0-.19,0-.28.2-1.53-.42-3-.3-4.54.07-.75-.4-1.42-.31-2.21a2.77,2.77,0,0,0-.25-2.06c-.09-.13,0-.39,0-.58.2-1.19-.46-2.32-.29-3.51a3.68,3.68,0,0,1-.27-2.35c0-.72-.42-1.32-.35-2.07s.28-1.33-.24-1.92c-.1-.11,0-.38,0-.57.19-1.2-.47-2.32-.3-3.52-.46-.79,0-1.74-.33-2.47-.48-1.13.12-2.37-.53-3.42a.7.7,0,0,1,0-.43,14.92,14.92,0,0,0-.35-3.52,13,13,0,0,0-.27-2.34c-.22-.75-.1-1.51-.29-2.21a24.2,24.2,0,0,1-.28-2.5c-.14-.84-.15-1.69-.31-2.49a16.26,16.26,0,0,0-.29-2.2c-.29-.76,0-1.53-.28-2.21s-.1-1.52-.29-2.21-.14-1.49-.28-2.22a35.49,35.49,0,0,1-.58-4,11.23,11.23,0,0,1-.29-1.49,2.1,2.1,0,0,0-.16-1.38c-.29-.44,0-1.06-.13-1.54-.49-1.45-.13-3.05-.86-4.45.22-1.05-.24-2-.32-3.07a19.66,19.66,0,0,0-.77-4.62,1.41,1.41,0,0,1-.07-.41c.09-1.6-.51-3.11-.62-4.7A22.28,22.28,0,0,1,67,15.43Z"/><path d="M115,75.11a1.92,1.92,0,0,0,1-.18,10.41,10.41,0,0,1,2.86-1.13,21.33,21.33,0,0,1,2.9-.78c1.12-.16,2.25-.4,3.39-.58a11.06,11.06,0,0,1,2.35-.22c.5,0,.84-.32,1.34-.35a15.54,15.54,0,0,1,2.06.35c.68.06,1.44-.32,2.06.27A12.08,12.08,0,0,1,136,73a26.71,26.71,0,0,1,5.73,2.34,2.87,2.87,0,0,1,1.39,1.8c0,.1.11.13,0,.21-.52.42.12,1.15-.41,1.57-.19,1.36-1.12,2.47-1.25,3.85-.94,1.23-1.39,2.78-2.47,3.9-.4.41-.4,1.14-1.18,1.29-.32,0-.5.26-.83,0a40.6,40.6,0,0,0-4.47-3.23c-1.26-.9-2.59-1.68-3.89-2.53a38.65,38.65,0,0,0-5.21-2.84,2.49,2.49,0,0,0-2.4,0c-1.12.61-2.36,1.07-3.53,1.62a37.23,37.23,0,0,0-3.52,2,28.53,28.53,0,0,0-3.3,2.18c-1.08.9-2.42,1.48-3.28,2.65a31.28,31.28,0,0,0-5,4.41c-.21.2-.2.41-.2.71v-.07a1.57,1.57,0,0,0-.23.09c-.07,0,0,.13.06.17s.11-.08.17-.19a19.4,19.4,0,0,1,3-1.83c.7-.3,1.31-.8,2-1.14a38.67,38.67,0,0,1,4.41-2c1.23-.42,2.43-.94,3.7-1.27.71-.18,1.58-.16,2.13-.82a5.8,5.8,0,0,0,2.19-.37c.7-.14,1.39-.14,2.08-.22.4,0,.85.18,1.22-.23a.56.56,0,0,1,.53,0c.46.42,1,.23,1.5.28s1.34-.24,1.83.11,1.29-.18,1.71.47c2,0,3.61,1.21,5.51,1.46,1,.83,2.35.89,3.37,1.71a1.16,1.16,0,0,1,.57,1c0,.82,0,1.65,0,2.47a16.27,16.27,0,0,0,.78,4.48c.23.92.4,1.86.63,2.79.31,1.23,1.06,2.3,1.21,3.58,1,1.21,1.13,3,2.59,3.88a1.29,1.29,0,0,1,.58.62c.07.19.23.64-.22.68-.27,0-.35.29-.6.32-1.91.22-3.45,1.31-5,2.25a10.19,10.19,0,0,0-2.74,2.15c-.17.21-.4.21-.61.31-.83.4-1.14.18-1.26-.72a17.68,17.68,0,0,0-1.33-5.27,7.53,7.53,0,0,0-1.58-2.69c-.34-.31-.62-.66-1-.11a10.73,10.73,0,0,0-3.7.89,57.92,57.92,0,0,0-6.07,2.2,9,9,0,0,1-1.68.51,21,21,0,0,0-2.74,1.12,13.47,13.47,0,0,1-2.23.22c-.18,0-.32-.1-.27-.23.16-.48-.34-.73-.33-1.19a6.49,6.49,0,0,0-1.39-3.93A5.82,5.82,0,0,0,107.7,102c-.66-.2-1.39,0-2-.43-1.38.13-2.71-.36-4.1-.35a3.62,3.62,0,0,1-3-1.25,2.55,2.55,0,0,1-.58-1.51,10,10,0,0,1,.3-2.5c.15-.83-.19-1.68.27-2.52a2.65,2.65,0,0,0,0-1.29c0-.44.34-.71.34-1.19a18,18,0,0,0,.25-2.35c.7-.55-.11-1.53.58-2.09a8.9,8.9,0,0,1,.29-2.35,3.78,3.78,0,0,1,.27-1.64c.21-.43-.19-1,.29-1.48.07-.07,0-.28,0-.42-.21-1.15.36-2.22.35-3.37,0-.5.3-1.07.22-1.62s.38-1.14.33-1.78.31-1,.3-1.62a1.71,1.71,0,0,1,.53-1.08,32.39,32.39,0,0,1,5.22-4.63c.5-.31,1-.59,1.53-.88a41.15,41.15,0,0,1,5.6-3,40.26,40.26,0,0,1,6.41-2.43.37.37,0,0,0,.13-.17c-.13-.14-.27-.27-.4-.4-.52.56-1.25,0-1.76.31s-1.22.11-1.76.33-1.15.32-1.67.55c-1,.41-1.93.73-2.89,1.1A23,23,0,0,0,110,63.32a22.15,22.15,0,0,0-6.5,4.7c-.24.28-.47.91-1,.62-.34-.19-.09-.72-.11-1.09a11.25,11.25,0,0,1,.48-3,12.5,12.5,0,0,0,.34-2.32c0-1,.32-1.85.4-2.79a5.55,5.55,0,0,1,.27-1.89c.34-.68.08-1.32.26-1.94.4-1.36.39-2.8.82-4.16a2.63,2.63,0,0,1,1.3-1.64c1.84-1,3.71-2.07,5.55-3.12,1-.55,2-1.09,2.95-1.63a62.31,62.31,0,0,0,5.85-3.45c.78-.54,1.65-.94,2.46-1.43,2-1.19,3.87-2.44,5.7-3.82,1.47-1.1,3-2.09,4.5-3.17,1-.7,1.9-1.48,2.88-2.18,1.66-1.19,3.12-2.62,4.85-3.73A19.84,19.84,0,0,0,143,25.63c.8-.66,1.62-1.3,2.41-2,1.3-1.15,2.62-2.3,4-3.39,2.07-1.68,3.78-3.69,5.72-5.49a2.21,2.21,0,0,0,.4-.41.92.92,0,0,1,1.16-.31,1.09,1.09,0,0,1,.48.89c-.08,1.31.34,2.67-.26,3.95a.48.48,0,0,0,0,.29c.19,1.29-.29,2.53-.33,3.81a18.92,18.92,0,0,1-.65,3.2c-.15.67-.34,1.32-.47,2-.28,1.47-.35,1.71-1.58,2.37a54,54,0,0,1-6.61,3c-.95.35-1.93.71-2.87,1.12A9.94,9.94,0,0,0,139,39.86a8.2,8.2,0,0,0-.78,3.31c0,.54,0,1.07,0,1.6a3.24,3.24,0,0,0,.28,1.64c.41.74.34,1.65.86,2.41a13.36,13.36,0,0,0,2,2.49c.26.19.39.59.8.52a6.36,6.36,0,0,0,1.79-.24,38.17,38.17,0,0,0,4.89-2.94,16.1,16.1,0,0,1,2.22-1.33c.68-.31,1.06-.06,1.16.65a13.58,13.58,0,0,1-.39,2.9,8.71,8.71,0,0,1-.49,1.83c-.24.74-.7,1.52-1.36,1.68a5,5,0,0,1-2,.38c-1-.17-1.92.38-2.94.31s-1.82.59-2.81.55a6.74,6.74,0,0,0-3.64,3.81,7.78,7.78,0,0,0,1.09,6.71,5.25,5.25,0,0,0,.78,1.14,2.87,2.87,0,0,0,3.09.7A17.93,17.93,0,0,0,146,66.91a2,2,0,0,1,.78-.24c.93,0,1,.12,1.11,1a12,12,0,0,1-1,4.69,13,13,0,0,1-.44,1.71,3.78,3.78,0,0,1-.86,1.39c-.8.66-1.13.61-1.91-.07a16.49,16.49,0,0,0-5.78-3.23,27.49,27.49,0,0,0-4.13-.95,21.06,21.06,0,0,0-5.13-.17,25.57,25.57,0,0,0-6.73,1.27c-1.05.37-2.17.61-3.22,1a11.82,11.82,0,0,0-3.7,1.73c-.22,0-.55-.14-.58.36,0-.07,0-.1-.14-.07s-.25,0-.37.08-.07.14,0,.19a.33.33,0,0,0,.46-.2C114.59,75.36,114.93,75.55,115,75.11Z"/><path d="M61.22,82.76C48.69,71.91,49.14,72,49.56,71.9a14.32,14.32,0,0,1,3.81.34,18.87,18.87,0,0,1,3.58.81c2.9,1,3.78,1,7.45,3.45a.43.43,0,0,0,.38,0c.24-.14,0-.23-.08-.29a14.5,14.5,0,0,0-2.5-1.7,37.84,37.84,0,0,0-7.29-3.12A17.16,17.16,0,0,0,52,70.79a8.21,8.21,0,0,0-3.08-.33A4.84,4.84,0,0,0,46,70.19a32.09,32.09,0,0,0-7.32,1.27c-1.09.34-2.1.81-3.13,1.23a21.4,21.4,0,0,0-3.42,1.93c-.27.17-.65.16-.81.49a9.7,9.7,0,0,1-.91-.62,3.43,3.43,0,0,1-.78-1.27c-.41-.94-.82-1.9-1.3-2.81-.3-.55-.22-1.17-.5-1.68A2.53,2.53,0,0,1,27.37,67c.06-.34-.51-.4-.24-.87.36-.63.84-.83,1.71-.46A8.53,8.53,0,0,1,31,67c1.26,1,2.39,1,3.89.13a4.41,4.41,0,0,0,1.72-2.63,9.12,9.12,0,0,0,.27-4.09,5.74,5.74,0,0,0-.75-2A9.35,9.35,0,0,0,33,55c-.56-.38-1.3-.09-1.8-.57-1.15.21-2.23-.48-3.38-.28s-1.94-.29-2.93-.31c-.53,0-.71-.51-1-.87s-.11-.94-.52-1.25c0-1.49-.75-2.89-.62-4.4a2.05,2.05,0,0,1,.07-.69c.29-.69.48-.83,1.1-.46,1.3.76,2.57,1.54,3.83,2.36a23.59,23.59,0,0,0,4.42,2.32,2.5,2.5,0,0,0,2.18-.19,7.86,7.86,0,0,0,3.21-3.78c.14-.5.41-.9.58-1.36s-.11-1,.3-1.49a.71.71,0,0,0,0-.69c-.54-.63-.15-1.43-.52-2.13s-.57-1.32-.93-1.93a10.84,10.84,0,0,0-2.73-3.25,34.34,34.34,0,0,0-3.95-2.43,9.62,9.62,0,0,0-1.69-.51c-2.06-.76-4.11-1.54-6.14-2.39-.33-.14-.69-.17-1-.33a2.76,2.76,0,0,1-1.64-2.08,26.83,26.83,0,0,1-.58-5.58c0-2.68-.41-5.34-.3-8A12.36,12.36,0,0,1,19.28,13c.07-.41.55-.46.88-.19.68.55,1,1.37,1.63,2a5.79,5.79,0,0,1,1.59,1.81c.18.41.66.7,1,1,.92.92,1.81,1.9,2.78,2.77,1.8,1.59,3.48,3.31,5.26,4.91,1,.92,2,1.9,3,2.8q2.19,1.9,4.41,3.79c1.37,1.18,2.79,2.34,4.26,3.4a68.25,68.25,0,0,0,7.22,5C52.73,41,54,42,55.41,42.77s2.73,1.6,4.08,2.41,2.91,1.67,4.35,2.53c2,1.2,4.06,2.37,6.09,3.54,1,.58,1.15,1.61,1.37,2.6a.94.94,0,0,1,0,.29c-.2,1.53.47,3,.29,4.54.5,1.24.35,2.62.88,3.86-.21,1,.48,1.93.28,2.93-.11.59.36,1,.31,1.63s0,1.16,0,1.74a.5.5,0,0,1-.77.4,1.41,1.41,0,0,1-.51-.52,10.78,10.78,0,0,0-2.08-2.34,26.15,26.15,0,0,0-2.3-1.78A20.79,20.79,0,0,0,62,61.47,12.53,12.53,0,0,0,57.07,60c-.61-.5-1.47-.08-2.09-.57-.06,0-.19,0-.29,0s-.25.09-.27.25a.27.27,0,0,0,.2.33,25.13,25.13,0,0,1,8.4,2.9c.85.45,1.6,1,2.41,1.55a11.71,11.71,0,0,1,2.34,1.75c.55.57,1.3.92,1.83,1.54,1.15,1.38,2.34,2.71,3.48,4.1a2.7,2.7,0,0,1,.51,1.8c-.09,1.92.52,3.79.33,5.7-.07.63.43,1.12.31,1.78a3.49,3.49,0,0,0,0,1.73,24.91,24.91,0,0,1,.29,2.5c.21.84.1,1.69.29,2.5s.09,1.89.3,2.79.06,1.9.3,2.78a10.62,10.62,0,0,1,.24,2.22A12.39,12.39,0,0,1,76,97.83a9.55,9.55,0,0,1-.47,2,2,2,0,0,1-2.11,1.48c-1.16,0-2.33,0-3.49,0a8.42,8.42,0,0,0-3.31.79,8.55,8.55,0,0,0-3.14,2.58,8.35,8.35,0,0,0-1.47,3.6c-.19,1.14-.61,1.45-1.66,1.11a45.9,45.9,0,0,1-4.67-1.73c-.57-.26-1.2-.4-1.77-.64a46.28,46.28,0,0,0-5.56-2,13.15,13.15,0,0,0-2-.49,1.42,1.42,0,0,0-1.45.71A14.5,14.5,0,0,0,43.08,109a14.69,14.69,0,0,0-.9,3.71c0,.33-.27.64-.3,1a.85.85,0,0,1-1.47.49c-.31-.28-.71-.52-.82-1s-.58-.37-.84-.64a12,12,0,0,0-4.19-2.85,2.1,2.1,0,0,1-.81-.48,1.23,1.23,0,0,0-1.16-.39,3.46,3.46,0,0,1-.72,0c-.8-.19-1-.65-.43-1.28a19.18,19.18,0,0,0,1.43-2.48A44,44,0,0,0,35.56,100,27.44,27.44,0,0,0,37,95.61c.3-1,0-2.12.48-3.14a2.33,2.33,0,0,0-.09-1.67c-.37-.88-.18-1.22.67-1.72a33.31,33.31,0,0,1,7.56-3.15,13.12,13.12,0,0,1,4.55-.63c.9.06,1.73-.35,2.64-.33.68,0,1.24.39,1.92.35a3.3,3.3,0,0,1,1.94.23c.48.27,1.22-.16,1.75.33,2,.13,3.79,1.11,5.62,1.89,2.66,1.14,4.9,2.93,7.3,4.47a12.11,12.11,0,0,1,2.14,1.2c.07.07.28,0,.42,0,0-.18.08-.38-.1-.55a9.89,9.89,0,0,0-1-1c-1.39-1-2.51-2.29-3.88-3.29a41.71,41.71,0,0,0-3.62-2.82,17.47,17.47,0,0,1-1.73-1.43c-2.33-1.81-4.83-3.38-7.21-5.11a2.06,2.06,0,0,0-1.88-.31,18.64,18.64,0,0,0-2.57.81c-1.3.7-2.76,1.1-4,1.84a37.08,37.08,0,0,0-5.66,3.56c-.84.71-1.86,1.2-2.67,1.93-.42.39-.76.92-1.17,1.36a1,1,0,0,1-.87.37c-.33,0-.46,0-.54-.45-.29-1.41-1.17-2.63-1.43-4.06-.73-.53-.77-1.42-1.17-2.13a13.91,13.91,0,0,1-1.12-3c-.17-.62-.52-1.14-.66-1.78-.34-1.5-.16-2.15,1.26-2.72a18,18,0,0,1,2.94-1c1.34-.29,2.58-1,4-.89,1.22-.6,2.59-.5,3.87-.83a12.33,12.33,0,0,1,3,0c.2,0,.39,0,13.55,10.85,12.92,10.8,12.89,10.72,12.83,10.69s-.18,0-.12.12.1.1.17.14S74.15,93.65,61.22,82.76ZM53.8,59.59l-.1-.19s-.1.07-.09.1a.55.55,0,0,0,.09.19Z"/><path d="M86.43,154c0,1.41.08,2.82,0,4.22-.08,1.25.47,2.42.32,3.66.49.69.23,1.47.28,2.21,0,.19,0,.4.25.42s.37-.1.34-.33c-.13-.93.2-1.87-.25-2.81a4.32,4.32,0,0,1,0-1.73c0-.82,0-1.65,0-2.47a5.82,5.82,0,0,1,.31-1.62c.1-.55-.26-1.16.26-1.65,0,0,0-.18,0-.27-.16-1.19.47-2.32.3-3.52-.09-.65.42-1.21.3-1.92a3.83,3.83,0,0,1,.23-1.78c.17-.52.47-1,.65-1.48s.75-.63,1.22-.78c.3-.09.68.09.91-.27.72.12,1.35-.37,2-.31,1.38.12,2.7-.42,4.1-.32s2.9,0,4.36,0h4.22c.34,0,.73-.12,1,0,.69.36,1.72.39,1.66,1.59a1.94,1.94,0,0,0,.37.71c.27.34.49.38.81.08a5.29,5.29,0,0,0,.41-.41,1.51,1.51,0,0,1,1.6-.42c1.66.25,3,1.23,4.58,1.64.71.18.83.7.36,1.26-.72.88-1.5,1.71-2.24,2.58a37.28,37.28,0,0,0-3.64,4.88c-1,1.63-2,3.25-2.89,4.91-.37.68-.8,1.32-1.2,2-.31.49-.53,1-.81,1.55-2.8,5.08-5.34,10.29-7.87,15.51-.88,1.81-1.72,3.65-2.48,5.52a37.2,37.2,0,0,0-1.6,4.28,7.67,7.67,0,0,1-2.45,2.88.81.81,0,0,1-1-.35c-.23-.31-.48-.27-.7,0s-.46.33-.52.65a.66.66,0,0,1-.83.58c-.46-.1-.74.33-1.19.32A6.33,6.33,0,0,1,84,192c-.56-.39-1.17-.69-1.71-1.14-1.63-1.35-2.23-3.32-3.11-5.12-.42-.84-.74-1.72-1.1-2.6-1.24-3-2.62-6-4-9q-2.53-5.51-5.4-10.85c-1-1.87-2.13-3.68-3.11-5.55-1.33-2.51-3-4.79-4.48-7.16a12.52,12.52,0,0,0-3.28-3.41c-.13-.1-.37,0-.55-.08-.47-.17-.16-.57-.22-.87s.18-.31.37-.28c.48.07.76-.24,1.13-.44a4.14,4.14,0,0,1,2-.76,2.65,2.65,0,0,0,1.64-.6c.49-.4.93-.36,1.16.16a3.74,3.74,0,0,0,.54.8c.18.23.3.22.52,0,.49-.45.58-1.3,1.25-1.47s1.3.11,1.88-.06a17.64,17.64,0,0,1,3.23-.29,7.5,7.5,0,0,0,1.9-.65,3.21,3.21,0,0,1,2.58.42c.17.17.12.36.1.54a2,2,0,0,0,.52,1.52c.17.21.32.51.65.52s.23-.43.44-.61a6.82,6.82,0,0,0,1.23-1.23,1.24,1.24,0,0,1,1.54-.44c1,.44,2.13.07,3,.77.24.19.75,0,1.13.06a7,7,0,0,1,1,0,1.19,1.19,0,0,1,1.19,1.39c-.13,1.44.42,2.81.33,4.25S86.43,152.63,86.43,154Z"/><path d="M48.6,121.25c0,.58,0,1.16,0,1.74a15,15,0,0,0,.74,4.21c.75,3,3.07,12.74,4.5,15.44A17,17,0,0,0,57.73,148a32.11,32.11,0,0,1,3.8,4.1,6,6,0,0,1,.86,1.53.71.71,0,0,1-.62.92,6.81,6.81,0,0,1-1,0,10,10,0,0,0-4,.89,13.23,13.23,0,0,0-2.19,1c-.36.2-.5.08-.72-.13a14,14,0,0,1-1.32-2.07,30.57,30.57,0,0,1-2-3.4A38.81,38.81,0,0,1,48.41,147a8.24,8.24,0,0,0-.76-1.71,8.93,8.93,0,0,1-.72-1.89c-.27-.56-.26-1.27-.79-1.71-.16-1.64-1.92-10.13-2.21-11.74a24.79,24.79,0,0,1-.58-3.55,14.38,14.38,0,0,1-.29-1.91,5,5,0,0,0-.23-1.93,6.44,6.44,0,0,1,0-2.32c.05-.73-.29-1.52.26-2.21.1-.12,0-.39,0-.57a12.51,12.51,0,0,1,.36-3.51,22.4,22.4,0,0,1,1.2-4.72A5.79,5.79,0,0,1,46,106.4c-.07-.44.21-.47.52-.44a3.08,3.08,0,0,1,1.08.23,39.46,39.46,0,0,0,3.88,1.51c1.06.36,2.13.71,3.22,1s2.06.87,3.17,1.14a21.93,21.93,0,0,1,2.78,1c.88.34,1.78.64,2.68.91s1.89.58,2.82.92c1.73.62,3.43,1.35,5.19,1.87a41.38,41.38,0,0,0,4.86,1.63,2.18,2.18,0,0,1,1.18.65c.43.47.88.91,1.34,1.34a4.21,4.21,0,0,0,2.55,1.22c1.43.17,2.87.34,4.26.63a16.21,16.21,0,0,0,3.85.51,2.81,2.81,0,0,0,.87,0c1-.4,2.1-.26,3.08-.63.75-.29,1.44-.74,2.16-1.1a3.87,3.87,0,0,0,1.06-1,4.62,4.62,0,0,1,3.07-1.68,2.71,2.71,0,0,0,1.28-.38c.6-.54,1.45-.27,2-.78a10,10,0,0,0,3.4-.93c.9-.28,1.84-.46,2.73-.76a15.9,15.9,0,0,1,3.11-1,12.64,12.64,0,0,0,2.87-1.1c1-.37,2-.69,3-1.12,1.31-.56,2.78-.73,4-1.49,1,.17,1.62-.56,2.47-.74a17.71,17.71,0,0,0,2.31-.74c.37-.13.7-.43,1.07-.55a3.52,3.52,0,0,1,1.33-.33,1.79,1.79,0,0,1,1.72,1.68,21.65,21.65,0,0,0,.68,3.5c.18.56.29,1.15.42,1.7s.55,1.12.34,1.76c.59.75.21,1.69.52,2.55a7,7,0,0,1,0,2.74c0,.5.31.84.34,1.33.06.87-.33,1.65-.33,2.5a9.47,9.47,0,0,1,0,2.61c-.35,1.28-.41,8.6-.78,9.88-.23.82-.52,1.64-.73,2.47a36.47,36.47,0,0,1-3.51,8.14,47.29,47.29,0,0,1-3.43,5.29,36.3,36.3,0,0,1-3.84,4.36c-.37.38-.46.44-.86-.11a4.26,4.26,0,0,0-2.06-1.25,19.91,19.91,0,0,0-3.09-.63c-.26,0-.58-.14-.82.1s-.33.26-.49.15a4.54,4.54,0,0,1-.63-.61c-.17-.19.08-.22.14-.31.51-.71,1-1.44,1.55-2.12,1-1.19,2-2.4,2.92-3.61a16,16,0,0,1,2-1.86c.77-.68,1.22-1.56,1.91-2.26.25-1.36,1.13-2.44,1.6-3.71s1-2.32,1.41-3.49c.62-1.59,1.19-9.2,1.51-10.91a9.93,9.93,0,0,0,.22-2.65,23.49,23.49,0,0,1,.33-3.66c.09-1.25-.43-2.42-.34-3.67,0-.28-.18-.85-.69-.29-1.92,0-3.61,1-5.48,1.17-.44.6-1.14.24-1.71.43a30.94,30.94,0,0,1-4.84,1.33,8.47,8.47,0,0,0-1.92.63,12.09,12.09,0,0,1-1.69.45c-.55.15-1.11.55-1.75.37a.67.67,0,0,0-.53.13,7,7,0,0,1-2.76.68c-1.5.23-2.92.73-4.4,1a22.27,22.27,0,0,0-3.3.78c-1.08.38-2.21.49-3.31.79a10.69,10.69,0,0,1-1.89.35,9.54,9.54,0,0,0-2.12.53,2.35,2.35,0,0,1-.69.07,10.68,10.68,0,0,1-1.6,0c-.7-.07-1.41.23-2.1-.18s-1.34.19-1.88-.39a6.47,6.47,0,0,1-2.35-.3c-1.17-.18-2.34-.4-3.5-.67-1.37-.32-2.7-.78-4.07-1a13.88,13.88,0,0,1-2.07-.66c-.9-.31-1.85-.42-2.74-.74a18.24,18.24,0,0,0-2.78-.7,14.94,14.94,0,0,1-3-.87c-1-.39-2-.5-3-.83a28.07,28.07,0,0,0-3.94-1c-1.53-.27-3-1-4.52-1.06-.46,0-.83-.35-1.33-.3-.74.06-1.15.28-1.12,1s-.42,1.43-.33,2.21A19.81,19.81,0,0,1,48.6,121.25Z"/><path d="M70.43,48.12c0,.64.1,1.14-.35,1.25-.24.06-.61-.17-.91-.37-.83-.55-1.69-1-2.56-1.53-1.73-1-3.48-1.91-5.19-2.92S58,42.43,56.33,41.38c-1-.62-2-1.26-3-1.85-.83-.48-1.6-1.05-2.39-1.58C49.49,37,48,36,46.63,35c-1.69-1.28-3.55-2.32-5.14-3.75a23.29,23.29,0,0,0-2.66-2c-.71-.46-1.13-1.28-2-1.49A29.78,29.78,0,0,0,33.74,25c-2.92-2.46-5.39-5.37-8.19-7.94-.88-.82-1.48-1.86-2.35-2.68a19.13,19.13,0,0,1-2.45-2.48C19.69,10.42,18.31,9.3,17.13,8,15.74,6.44,14.34,4.89,13,3.27c-.38-.47-.74-1-1.16-1.4,0,0-.09-.06-.1-.1-.08-.4-.49-.8-.22-1.19.44-.63.68,0,1,.22,1.42.86,2.73,1.87,4.06,2.85.72.54,1.54,1,2.31,1.45,1.63,1.05,3.32,2,5,3,1.14.65,2.21,1.4,3.38,2,.67.35,1.36.71,2,1.09C33.45,13.53,37.7,15.6,42,17.63A51.15,51.15,0,0,0,49.87,21c1.88,1.17,4.1,1.55,6.08,2.52,1.13.55,2.38.78,3.57,1.22a15.43,15.43,0,0,0,2.82.9,20.72,20.72,0,0,1,2.71.83,4.65,4.65,0,0,0,1.46.31,1.58,1.58,0,0,1,1.14.39,2.72,2.72,0,0,1,.44,1.39,15,15,0,0,1,.3,3.66c.63,1.06,0,2.34.58,3.4-.22,1.19.47,2.33.28,3.51-.1.57.39.93.33,1.48s-.25,1.07.26,1.49c0,0,0,.19,0,.28a15.31,15.31,0,0,0,.23,2.51C70.33,46,70,47.24,70.43,48.12Z"/><path d="M165,.73a3.91,3.91,0,0,1-1.11,2c-1,1.33-2.18,2.6-3.23,3.92s-2.49,2.52-3.62,3.88c-1.35,1.62-2.83,3.11-4.33,4.59s-3.39,3.11-5,4.7c-1.32,1.27-2.76,2.44-4.18,3.6s-3.12,2.33-4.6,3.57c-1.71,1.45-3.58,2.66-5.33,4-2.2,1.73-4.56,3.24-6.85,4.85-.66,0-.78.75-1.38.9s-.9.68-1.36.93c-1.61.86-3,2-4.6,2.93-1.34.76-2.61,1.64-3.93,2.45s-2.74,1.6-4.07,2.43-3,1.46-4.37,2.48a2.7,2.7,0,0,1-1.26.47c-.24,0-.41.32-.72.06s-.39-.58-.24-.76c.58-.67-.07-1.61.56-2.24-.21-.78.28-1.46.34-2.21a11.93,11.93,0,0,1,.28-1.76,10.06,10.06,0,0,0,.26-1.63,10,10,0,0,1,.33-1.76c.41-1.52.58-3.06.87-4.59s.59-3.05.84-4.59c.07-.45.26-.86.32-1.33s.58-.91,1.18-1.11c1.24-.41,2.51-.71,3.75-1.11.9-.3,1.73-.74,2.67-1a22.75,22.75,0,0,0,2.63-1q2.07-.8,4.17-1.53c1.22-.43,2.43-.93,3.63-1.42,2.65-1.08,5.29-2.2,7.88-3.43,1.54-.73,3.14-1.33,4.66-2.09l4.7-2.36c1.53-.76,3.1-1.44,4.58-2.28,2.63-1.5,5.33-2.87,7.86-4.58a19.48,19.48,0,0,1,3.13-1.9c.58-.25.79-1,1.47-1,.94-1,2.24-1.55,3.15-2.57l.1-.1a.62.62,0,0,1,.68-.11C165.13.13,165,.45,165,.73Z"/><path d="M139.15,43.76c-.32-2,.55-3.72,1.43-5.37A4.09,4.09,0,0,1,143,36.54a54,54,0,0,0,6.25-2.82c2.82-1.38,5.58-2.9,8.41-4.27a10.84,10.84,0,0,1,2.28-1.15c.87-.19,1.43-.92,2.25-1.22a11.38,11.38,0,0,0,2.28-1.16c1.91-1.23,3.9-2.32,5.81-3.56a29.13,29.13,0,0,0,3.81-2.7c.32-.29.54-.08.69.16a1.19,1.19,0,0,1,0,1.29c-.62,1.22-1.36,2.35-2.09,3.49a69,69,0,0,1-4.49,6c-.53.66-1.14,1.25-1.67,1.91a61.36,61.36,0,0,1-4.63,4.91c-1.25,1.28-2.7,2.34-4,3.53-1.16,1-2.47,1.87-3.61,2.93-.73.69-1.65,1.17-2.45,1.81-1.06.85-2.27,1.52-3.38,2.33a8,8,0,0,1-1.06.6,13.68,13.68,0,0,0-3.15,1.86,1.71,1.71,0,0,1-.62.28c-1.28.49-1.16.5-2.1-.28s-1.17-2-1.67-3.09A5.8,5.8,0,0,1,139.15,43.76Z"/><path d="M36.65,43.69a7.24,7.24,0,0,1-.24,2.65,8.26,8.26,0,0,1-2,2.65c-.44.34-.7.95-1.41.82-.65.59-1.31.3-1.94,0a23,23,0,0,1-3.56-2.29c-1.46-1.12-3-2.16-4.48-3.23a13,13,0,0,1-1.77-1.33,9.58,9.58,0,0,0-1.89-1.46c-.64-.38-.95-1.2-1.78-1.3A31.37,31.37,0,0,0,15.16,38c-1.63-1.6-3.28-3.17-4.82-4.85A23.33,23.33,0,0,1,8,30.36a21.32,21.32,0,0,0-1.65-1.93c-1.11-1.28-2.16-2.62-3.21-3.93s-2-2.64-2.95-4A1.33,1.33,0,0,1,0,19.72c0-.19,0-.41.19-.47a.38.38,0,0,1,.38.12,26.89,26.89,0,0,0,4.55,3.07c2,1.2,4,2.23,6,3.37A19.43,19.43,0,0,0,14,27.29c1,.36,1.84,1.18,3,1.26,1.68,1.34,3.81,1.81,5.65,2.88s3.69,1.85,5.54,2.76c1.29.63,2.61,1.19,3.9,1.82a8,8,0,0,1,3.42,3.36l.13.23A5.52,5.52,0,0,1,36.65,43.69Z"/><path d="M139.11,61.91a4.07,4.07,0,0,1,.85-2.79,6.44,6.44,0,0,1,2.83-2.73c.56-.22,1.2-.07,1.69-.48a12.94,12.94,0,0,0,3.51-.32,21.89,21.89,0,0,0,5.13-.91A29.87,29.87,0,0,0,157.51,53c1.38-.75,2.87-1.25,4.25-2a18.16,18.16,0,0,1,2.14-1.13A17.81,17.81,0,0,0,166,48.64a21.06,21.06,0,0,0,2.09-1.26,1.47,1.47,0,0,1,.94-.2c.35,0,.42.25.27.46a12.33,12.33,0,0,1-1.21,1.83c-2.3,2.28-4.51,4.67-6.92,6.85a51.47,51.47,0,0,1-6.08,4.55c-1.29.86-2.59,1.73-3.92,2.5A21.37,21.37,0,0,1,146,65.86c-1,.27-2,.83-3,1.16-1.45.48-1.69.47-2.46-.85C139.5,64.44,138.94,63.29,139.11,61.91Z"/><path d="M36.06,62.17c.28,1-.32,2-.64,2.9a3.17,3.17,0,0,1-1.62,1.56c-.66.3-1.44-.11-2.11-.43-2.33-1.15-4.67-2.29-7-3.5a58.68,58.68,0,0,1-7-4.08,12.38,12.38,0,0,0-1.52-.9,10.78,10.78,0,0,1-2.41-1.88c-2.1-1.91-3.81-4.2-5.86-6.15-.32-.3-.31-.78-.71-1a.34.34,0,0,1-.07-.59c.2-.19.32-.44.71-.24C9,48.43,10.16,49,11.35,49.5a21.8,21.8,0,0,0,2.25.87c.78.23,1.47.66,2.22,1s1.63.77,2.46,1.07a31.44,31.44,0,0,0,4,1.54A27,27,0,0,0,26,54.8a7.09,7.09,0,0,1,2.18.29c.7.3,1.43.2,2.13.47s1.37.42,2.06.64a2.61,2.61,0,0,1,1.69,1.25c.4.7,1,1.33,1.35,2.06A4.14,4.14,0,0,1,36.06,62.17Z"/><path d="M110.86,108.89c-.12.42.14,1-.21,1.63-.25.45-.47.34-.75.38-.06,0-.14-.13-.22-.17-1.83-.85-3.6-.23-5.38.21a22.13,22.13,0,0,1-2.85,1.91c-1.09.85-2.19,1.68-3.3,2.52-.32.24-.62.15-.93.19a.24.24,0,0,1-.31-.21c-.11-1.23-.68-2.45,0-3.7a1.51,1.51,0,0,0,0-.71,14,14,0,0,1,1.38-5.67,6.71,6.71,0,0,1,2.11-2.59,2.62,2.62,0,0,1,1.66-.47,13.8,13.8,0,0,1,3.38.19,22.65,22.65,0,0,1,2.37,1,4.66,4.66,0,0,1,1.78,1.65A5.11,5.11,0,0,1,110.86,108.89Z"/><path d="M77.7,111.33c0,.72,0,1.45,0,2.17.06.55-.26,1-.33,1.48s-.88.62-1.28.3c-1.82-1.44-3.64-2.89-5.48-4.3-.39-.29-1-.32-1.29-.73s-1.09.1-1.39-.51a4.41,4.41,0,0,0-3.13.84c-.32.25-.7.58-1,.49-.51-.13-.41-.71-.36-1.12.24-1.86.42-3.75,1.9-5.17.19-.91,1.08-1,1.7-1.43a8,8,0,0,1,2.09-.93,10.45,10.45,0,0,1,3.38-.21,4.45,4.45,0,0,1,2.25.85,4.26,4.26,0,0,1,2.06,2.53c.14.61.62,1.08.61,1.79s.35,1.23.28,1.91A19.81,19.81,0,0,0,77.7,111.33Z"/><path d="M62,155.72c1-.17,1.69,1,2.34,2.14.78,1.37,1.53,2.76,2.27,4.15.87,1.62,1.66,3.3,2.59,4.88s1.71,3.38,2.66,5A18.92,18.92,0,0,0,73.08,174a1.54,1.54,0,0,1,.26.92c0,.32-.12.38-.42.41a2.41,2.41,0,0,1-1.52-.57,27.88,27.88,0,0,1-5.72-4.39,35.39,35.39,0,0,1-3.16-3.9c-.93-1.3-1.82-2.64-2.73-4a27.06,27.06,0,0,1-1.67-2.79,4.18,4.18,0,0,0-.37-.73c-.64-.88-.63-1.11.11-1.78A6.37,6.37,0,0,1,62,155.72Z"/><path d="M101.86,174.82a1.67,1.67,0,0,1,.21-.79,40.52,40.52,0,0,1,2.59-4.87c.21-1.16,1-2,1.54-3s1-2,1.48-3c.86-1.68,1.72-3.36,2.63-5a1.78,1.78,0,0,1,1.9-1.18c.71.09,1.45,0,2.17,0a6.47,6.47,0,0,1,2.24.55,1.06,1.06,0,0,1,.56.38c.19.36.43.75.1,1.17-1.06,1.33-1.93,2.79-2.89,4.18s-2.22,3-3.35,4.4a28.06,28.06,0,0,1-4.4,4.71,28.14,28.14,0,0,1-3.72,2.9c-.12.07-.19.23-.32.3a.5.5,0,0,1-.74-.46A2.81,2.81,0,0,1,101.86,174.82Z"/><path d="M111.56,120.22c1.56,0,2,.34,2.21,1.82.07.46.43.81.33,1.33a2.83,2.83,0,0,0,.22,1.2c.17.66-.31,1.31-.59,1.9a1.41,1.41,0,0,1-1.38.45,1.4,1.4,0,0,0-1.18.29,1.86,1.86,0,0,1-1.19.29,4.3,4.3,0,0,0-1.64.24A2.06,2.06,0,0,1,106,126.1c0-1-.34-1.94-.35-2.93a1.41,1.41,0,0,1,1-1.51c.87-.38,1.82-.54,2.67-.91A4.93,4.93,0,0,1,111.56,120.22Z"/><path d="M102.59,122.56c.32,0,.69-.15,1,.1s.72.59.64,1.18a5.76,5.76,0,0,0,.48,2.55,1.69,1.69,0,0,1-1.21,2.29,6,6,0,0,1-1.77.28c-.59,0-1.17-.16-1.79.24-.45.3-1.13,0-1.76.28-1,.42-2.06-.62-2.09-1.88a5.16,5.16,0,0,0-.55-2.54.37.37,0,0,1,0-.37,2.78,2.78,0,0,1,1.61-1,12.82,12.82,0,0,0,3.32-.68A3.91,3.91,0,0,1,102.59,122.56Z"/><path d="M67.43,126.91c-.71.19-1.42-.41-2.24-.3a4.5,4.5,0,0,1-2.23-.53c-.47-.17-1-.14-1.4-.54-.25-.22-.47-.3-.45-.68a5.76,5.76,0,0,1,.25-1.78c.12-.32.4-.61.35-1a7.48,7.48,0,0,1,0-1.16c0-1.06.66-1.39,1.66-1a8.46,8.46,0,0,0,1.91.67,16,16,0,0,0,1.94.55c.61,0,1.15.46,1.79.57.37.06.5.55.53.84a8.59,8.59,0,0,1-.84,4.13c-.09.25-.24.24-.43.24Z"/><path d="M57.58,124.58a7.77,7.77,0,0,1-2.88-.75c-.43-.13-.82-.34-1.27-.45a3,3,0,0,1-1.34-1,.77.77,0,0,1-.18-1,11.21,11.21,0,0,0,.76-3.17c.12-.85.65-1.32,1.32-.86s1.81.33,2.51,1c.28.25.65.11,1,.1a7.22,7.22,0,0,1,2.1.54c.47.15.31.52.56.69s0,.38-.07.59a5.29,5.29,0,0,0-.41,2.16,1.74,1.74,0,0,1-.1,1C59.08,124.39,58.81,124.59,57.58,124.58Z"/><path d="M117.13,125.17c-.19,0-.39,0-.58,0a.65.65,0,0,1-.71-.69,9.92,9.92,0,0,0-.79-3.44c-.34-1-.12-1.41.82-1.87.4-.19.77-.56,1.27-.4s1.15-.38,1.77-.3a4.14,4.14,0,0,0,1.56-.43c1-.31,1-.2,1.51.72.37.7-.06,1.52.54,2.1-.16.59.3,1,.39,1.59,0,.22.27.54.17.76s-.46.78-.78.75c-.48,0-.73.39-1.19.35-1-.08-1.83.52-2.8.57C118,125.33,117.54,125.13,117.13,125.17Z"/><path d="M70.72,125.32c0-.48,0-1,0-1.45,0-.93.84-1.71,1.54-1.27s1.34-.1,1.84.52,1.15.15,1.68.51a1.75,1.75,0,0,0,1.12.07c.43-.07.63.47,1,.3.66-.26.57.46.85.68.08.06.08.27.06.4a13.81,13.81,0,0,1-.47,2.42c-.42,1.19-1.27,1.49-2.64,1.08a7.2,7.2,0,0,0-2-.5c-.66,0-1.22-.5-1.91-.3-.31.09-.51-.19-.76-.26s-.39-.15-.39-.45C70.73,126.49,70.72,125.91,70.72,125.32Z"/><path d="M86.73,127.79c0,.44,0,.87,0,1.3s0,1-.5,1.4a1.35,1.35,0,0,1-1.46.09c-.43-.27-.86,0-1.22-.19a2.2,2.2,0,0,0-1.19-.28,2.49,2.49,0,0,1-2.22-1.24,1.5,1.5,0,0,1-.07-1.38c.26-.64.29-1.32.54-1.95s.93-1.23,1.61-.89a1.89,1.89,0,0,0,1.06.21c.9-.06,1.71.45,2.64.34.47-.06.8.47.8,1S86.73,127.26,86.73,127.79Z"/><path d="M88.18,127.66c0-.44,0-.87,0-1.3,0-.63.24-.92.8-.89,1.56.09,2.94-.59,4.38-1,.93-.25,1.07-.14,1.24.78a23.23,23.23,0,0,1,.3,3.21,1.26,1.26,0,0,1-.73,1.27c-.38.19-.81.77-1.37.2s-.91.06-1.26.21a3.33,3.33,0,0,1-2.81,0,.79.79,0,0,1-.56-.86C88.21,128.72,88.18,128.19,88.18,127.66Z"/></g></g></g></svg>